<svg id="Layer_1" data-name="Layer 1" xmlns="http://www.w3.org/2000/svg" viewBox="0 0 300 300"><defs><style>.cls-1{fill:#f0f3f8;}.cls-2{fill:#c28575;}.cls-3{fill:#104a9e;}.cls-4{fill:#1756c6;}.cls-5{fill:#236df1;}.cls-6{fill:#d0ddef;}</style></defs><title>updated icons 1st march</title><path class="cls-1" d="M185.1,108.14c20.4,14.4,60.61-35.33,81.53-17.1,18.72,16.31-9.08,51.53-9.45,71.52-.63,33.28,41.59,71.49,3.8,100.31a41,41,0,0,1-38,5.95c-20.74-7.37-34-30.79-55.8-34.18-15.69-2.44-31,6.29-45.62,13.37-12.44,6-25.56,11.12-39.14,12S54.66,257.34,45,247.78c-21.19-21,11.82-59.55,22-82.36,10-22.58,1.82-39.43,1.1-63.93C67.74,90.27,65.69,79.2,65.77,68c.16-21.34,13.51-38.92,30.62-47.16,25.1-12.1,58.28-4.12,69.72,41.51C167.72,68.71,171.27,98.38,185.1,108.14Z"/><path class="cls-2" d="M143.82,93.24a151.64,151.64,0,0,1,8.8-60.08c-2-3.44-9.59-14.88-24.4-16.95a58.48,58.48,0,0,0-28.42,3.22c3.91,29.17,12.85,96.83,13.24,109.08l1.65,52.65c0,1.07.05,1.82,1.11,2,4.24.77,11-1.82,13.66-22.63,0,0,.17-5.54.21-8.61,0-.44-1.31-30.31,11,8.13a46,46,0,0,1,1.59,6.54l4.92,29.66a5.13,5.13,0,0,0,9.7,1.81h0c8.26-16.6,15-44,6.33-60C157.6,127.55,144.22,100.26,143.82,93.24Z"/><circle class="cls-3" cx="105.14" cy="241.83" r="13.31"/><path class="cls-4" d="M146.16,264.16c-25,0-46.3-3-51.57-4.62C85.43,256.69,86,248.69,86,248.61c0-.44-.15-48.24-.1-80.42,0-20.78,2.91-38,9.35-55.79,1.64-4.53,4.78-11,4.81-11.1l.9.44c0,.06-3.15,6.53-4.77,11-6.4,17.69-9.26,34.79-9.29,55.45,0,32.17.1,80,.1,80.46s-.46,7.34,7.91,9.93c8.55,2.65,59.74,8.89,99.86-.11.43-.06,9.62-1.55,9.62-14,0-2.43-.1-9.33-.23-18.06-.24-16.19-.57-38.37-.6-54.25a169.18,169.18,0,0,0-15.22-69.81l.91-.42a170.2,170.2,0,0,1,15.32,70.23c0,15.88.36,38.05.6,54.24.13,8.74.23,15.64.23,18.08,0,13.36-10.34,15-10.44,15C179.3,263,162,264.16,146.16,264.16Z"/><path class="cls-4" d="M146.52,259.22c-22.94,0-42.51-2.74-47.34-4.24-8.43-2.62-7.94-10-7.94-10.07,0-.36-.12-41-.13-73a.5.5,0,0,1,1,0c0,32,.12,72.59.12,73s-.42,6.7,7.23,9.08c7.85,2.44,54.81,8.16,91.63-.11.4-.06,8.8-1.42,8.8-12.83V194.77a.5.5,0,0,1,1,0v46.33c0,12.29-9.52,13.8-9.62,13.81C176.94,258.12,161,259.22,146.52,259.22Z"/><path class="cls-4" d="M145.43,94.56c-17.92,0-44.58-1.68-44.58-6.29,0-1.15,1.46-2.09,4.61-3l3.15-.73.23,1-3.12.72c-3.67,1-3.85,1.84-3.85,2,0,2.21,16.58,5.29,43.58,5.29S189,90.48,189,88.27,172.44,83,145.43,83h-1.81V82h1.82C163.35,82,190,83.65,190,88.27S163.35,94.56,145.43,94.56Z"/><path class="cls-4" d="M145.29,99.17c-17.92,0-44.58-1.68-44.58-6.29,0-1.05,1.21-1.92,3.8-2.73l.3,1c-2.95.92-3.1,1.64-3.1,1.77,0,2.21,16.58,5.29,43.58,5.29s43.58-3.08,43.58-5.29c0-.14-.15-.86-3.11-1.78l.3-1c2.6.81,3.82,1.68,3.82,2.73C189.87,97.5,163.21,99.17,145.29,99.17Z"/><path class="cls-4" d="M144.86,103.82c-17.92,0-44.58-1.68-44.58-6.29,0-1,1.11-1.85,3.48-2.63l.31.95c-2.66.87-2.8,1.55-2.8,1.68,0,2.21,16.58,5.29,43.58,5.29s43.58-3.08,43.58-5.29c0-.13-.13-.8-2.77-1.67l.31-.95c2.36.78,3.46,1.61,3.46,2.62C189.44,102.15,162.78,103.82,144.86,103.82Z"/><path class="cls-4" d="M144.86,107.87c-21.57,0-44.25-2.35-44.87-6.27l1-.15c.35,2.27,17.22,5.43,43.88,5.43,24.78,0,41.56-2.55,43.46-5l.79.61C186.37,106,164.78,107.87,144.86,107.87Z"/><circle class="cls-4" cx="181.46" cy="241.98" r="13.31"/><circle class="cls-4" cx="127.37" cy="244.21" r="13.31"/><circle class="cls-4" cx="143.72" cy="220.59" r="13.31"/><circle class="cls-3" cx="132.81" cy="189.22" r="13.31"/><circle class="cls-5" cx="154.12" cy="244.42" r="13.31"/><circle class="cls-5" cx="186.83" cy="205.11" r="13.31"/><circle class="cls-5" cx="118.53" cy="219.39" r="13.31"/><circle class="cls-6" cx="168.37" cy="221.9" r="13.31"/><polygon class="cls-2" points="108.14 83.65 108.74 88.39 111.2 84.28 108.14 83.65"/><polygon class="cls-2" points="143.62 81.36 143.58 84.66 140.39 83.44 143.62 81.36"/></svg>