<svg id="Layer_1" data-name="Layer 1" xmlns="http://www.w3.org/2000/svg" viewBox="0 0 300 300"><defs><style>.cls-1{fill:#f0f3f8;}.cls-2{fill:#236df1;}.cls-3{fill:#1756c6;}.cls-4{fill:#d0ddef;}.cls-5{fill:#efefef;}.cls-6{fill:#104a9e;}.cls-7{fill:#eff3f7;}</style></defs><title>updated icons 1st march</title><path class="cls-1" d="M65.42,89c22.74-8,49.29-4.31,71.92-15.63,21.09-10.55,36.87-31.23,61.76-32.7,44.21-2.6,37.28,47.4,43.61,74.51,5.51,23.58,18,45,33.29,63.84,20.13,24.81,13.08,70-24.67,76.39-21.37,3.65-37.22-10-49.77-24.17-17.89-20.2-39.35-38.88-67.75-43.82-33.83-5.89-63.24-1-87.59-28.93-15.68-18-19.26-42.42,1.22-59.46A57.56,57.56,0,0,1,65.42,89Z"/><path class="cls-2" d="M94.11,97.82H219.35A25.62,25.62,0,0,1,245,123.45v88.49a0,0,0,0,1,0,0H68.48a0,0,0,0,1,0,0V123.45A25.62,25.62,0,0,1,94.11,97.82Z"/><path class="cls-3" d="M245,113.11a15.28,15.28,0,0,0-15.28-15.28h-5.48l-3.24.06c7.23,1.21,15,7.64,15,15.22v98.84h9Z"/><path class="cls-3" d="M245,228.75H17c-8.33,0-15.08-6.16-15.08-13.77v-3l243,0Z"/><path class="cls-4" d="M226.2,201.24H82.14l-.2-82.69a7.32,7.32,0,0,1,7.26-7.38H218.74a7.32,7.32,0,0,1,7.26,7.38Z"/><path class="cls-5" d="M98.43,211.94a7.93,7.93,0,0,0,8,7.93L140,220a8,8,0,0,0,8.06-8h0Z"/><rect class="cls-6" x="235.93" y="211.94" width="9.07" height="16.81"/><path class="cls-3" d="M213,99.58H103.19V83a23.55,23.55,0,0,1,23.53-23.53H213Zm-108.79-1H212V60.46H126.72A22.55,22.55,0,0,0,104.19,83Z"/><path class="cls-3" d="M199.15,185.81H103.3V102.63h95.86Zm-94.86-1h93.86V103.63H104.3Z"/><path class="cls-2" d="M220,111.11H80l5.94-5.42a7.6,7.6,0,0,1,7.6-7.6L220,97.84Z"/><path class="cls-1" d="M225.44,72.55a12.67,12.67,0,0,0-12.67-12.67h-.61A12.67,12.67,0,0,0,199.5,72.55v14h25.94Z"/><path class="cls-3" d="M225.94,87.06H199V72.55a13.18,13.18,0,0,1,13.17-13.17h.61a13.18,13.18,0,0,1,13.17,13.17Zm-25.94-1h24.94V72.55a12.18,12.18,0,0,0-12.17-12.17h-.61A12.18,12.18,0,0,0,200,72.55Z"/><rect class="cls-3" x="198.99" y="77.56" width="1" height="20.31" transform="matrix(1, 0, 0, 1, -0.3, 0.68)"/><rect class="cls-7" x="201.65" y="87.05" width="18" height="10.78"/><rect class="cls-3" x="117.23" y="116.69" width="63.62" height="1"/><rect class="cls-3" x="117.12" y="124.04" width="63.62" height="1"/><rect class="cls-3" x="117.01" y="131.27" width="63.62" height="1"/><rect class="cls-3" x="116.9" y="138.63" width="63.62" height="1"/><rect class="cls-3" x="117.01" y="145.6" width="63.62" height="1"/><rect class="cls-3" x="116.9" y="152.96" width="63.62" height="1"/><rect class="cls-3" x="116.79" y="160.18" width="63.62" height="1"/><rect class="cls-3" x="116.68" y="167.54" width="63.62" height="1"/><rect class="cls-3" x="116.54" y="84.55" width="63.62" height="1"/><rect class="cls-3" x="116.43" y="91.9" width="63.62" height="1"/></svg>