<svg xmlns="http://www.w3.org/2000/svg" xmlns:xlink="http://www.w3.org/1999/xlink" width="324" height="238" viewBox="0 0 324 238"><defs><path id="a" d="M287.798 143.776H0V.083h287.798z"/><path id="c" d="M.016 9.756h2.47V.083H.016z"/><path id="e" d="M.016 9.756h2.47V.083H.016z"/><path id="g" d="M.016 9.756h2.47V.083H.016z"/><path id="i" d="M.016 9.756h2.47V.083H.016z"/></defs><g fill="none" fill-rule="evenodd"><g transform="translate(0 93.321)"><mask id="b" fill="#fff"><use xlink:href="#a"/></mask><path fill="#BDE1D0" fill-opacity=".2" fill-rule="nonzero" d="M20.19 83.847c-8.793 3.15-17.081 5.809-19.696 18.377-2.165 10.411 3.038 20.167 10.676 26.91 10.2 9.006 25.66 13.77 41.263 13.903 11.887.1 23.794.687 35.696.731 22.728.085 45.43-.501 68.156-.485 20.279.014 63.284 1.473 83.27-.731 34.678-3.826 55.587-42.461 45.851-74.405-7.874-25.835-43.839-62.235-85.094-51.979-13.487 3.353-19.825 13.628-32.757 17.485-18.136 5.41-36.59-7.84-46.645-17.65-4.76-4.643-9.53-9.51-16.264-12.55C81.15-7.15 63.073 9.407 53.802 23.527c-5.423 8.26-9.378 17.126-12.083 26.111-2.57 8.537-.278 21.344-8.642 27.843-3.994 3.104-8.503 4.796-12.888 6.367" mask="url(#b)"/></g><path fill="#BDE1D0" fill-opacity=".2" fill-rule="nonzero" d="M182.965 116.768c8.595-.037 17.202-.344 25.78-.663 4.844-.18 9.795-.352 14.43 1.065 4.634 1.416 8.976 4.744 10.26 9.412 1.638 5.951-2.043 12.12-6.562 16.329-4.52 4.208-10.042 7.383-13.863 12.233-2.334 2.962-3.98 6.943-2.677 10.48 1.785 4.846 7.827 6.305 12.958 6.939 34.492 4.26 84.1 12.972 97.477-30.014 6.347-20.395 2.009-43.316-5.44-62.79-5.879-15.365-15.443-29.652-28.903-39.129-19.52-13.743-45.531-15.995-68.698-10.2-34.776 8.698-67.748 32.32-86.405 62.893-2.135 3.5-4.173 7.563-3.149 11.53 1.488 5.76 8.341 8.04 14.21 9.052 13.393 2.307 26.973 2.923 40.582 2.863"/><path fill="#82C6A8" fill-rule="nonzero" d="M117.016 226.218c1.378.242 3.32-.816 3.32-2.049l3.174-61.846-6.494.014v63.881z"/><path fill="#447962" fill-rule="nonzero" d="M117.016 226.218c-1.33-.006-1.797-1.696-1.797-2.225l-2.934-61.656h4.73v63.881z"/><path fill="#82C6A8" fill-rule="nonzero" d="M44.516 226.218c1.38.242 3.32-.816 3.32-2.049l3.175-61.846-6.495.014v63.881z"/><path fill="#447962" fill-rule="nonzero" d="M44.516 226.218c-1.329-.006-1.796-1.696-1.796-2.225l-2.934-61.656h4.73v63.881z"/><g fill-rule="nonzero"><path fill="#82C6A8" d="M103.786 226.218c1.379.242 3.32-.816 3.32-2.049l3.174-61.846-6.494.014v63.881z"/><path fill="#447962" d="M103.786 226.218c-1.33-.006-1.796-1.696-1.796-2.225l-2.935-61.656h4.73v63.881z"/></g><path fill="#2C8270" fill-rule="nonzero" d="M15.96 162.332c-.07 0-.127.065-.127.144 0 .08.057.144.126.144l189.677.053c.07 0 .126-.065.126-.144 0-.08-.056-.144-.126-.144l-189.677-.053z"/><path fill="#0F2337" fill-rule="nonzero" d="M169.306 102.827c0-1.89-1.686-3.422-3.766-3.422h-64.8c-2.08 0-3.766 1.532-3.766 3.422v38.58h72.332v-38.58z"/><path fill="#FFF" fill-rule="nonzero" d="M100.74 150.148h64.8c2.08 0 3.766-1.532 3.766-3.422v-5.319H96.975v5.32c0 1.889 1.685 3.42 3.765 3.42"/><g transform="translate(123.775 150.105)"><mask id="d" fill="#fff"><use xlink:href="#c"/></mask><path fill="#2C8270" fill-rule="nonzero" d="M1.322 4.68h2.47v-9.672h-2.47z" mask="url(#d)"/></g><g transform="translate(123.775 150.105)"><mask id="f" fill="#fff"><use xlink:href="#e"/></mask><path fill="#2C8270" fill-rule="nonzero" d="M1.322 14.353h2.47V4.68h-2.47z" mask="url(#f)"/></g><g transform="translate(123.775 150.105)"><mask id="h" fill="#fff"><use xlink:href="#g"/></mask><path fill="#2C8270" fill-rule="nonzero" d="M-1.147 4.68h2.469v-9.672h-2.47z" mask="url(#h)"/></g><g transform="translate(123.775 150.105)"><mask id="j" fill="#fff"><use xlink:href="#i"/></mask><path fill="#2C8270" fill-rule="nonzero" d="M-1.147 14.353h2.469V4.68h-2.47z" mask="url(#j)"/></g><path d="M123.918 159.734h2.217v-9.42h-2.217z"/><path fill="#82C6A8" fill-rule="nonzero" d="M126.261 159.86h11.119v-9.672h-11.12z"/><path fill="#82C6A8" fill-rule="nonzero" d="M119.654 162.134h22.439v-2.302h-22.44zm18.457-16.564c0 .791-.705 1.432-1.575 1.432s-1.576-.641-1.576-1.432c0-.79.705-1.431 1.576-1.431.87 0 1.575.64 1.575 1.431"/><path fill="#122F47" fill-rule="nonzero" d="M99.248 102.827c0-1.89 1.686-3.422 3.766-3.422h-2.979c-2.08 0-3.766 1.532-3.766 3.422v38.58h2.98v-38.58z"/><path fill="#B4DDCB" fill-rule="nonzero" d="M99.248 146.726v-5.32h-2.98v5.32c0 1.89 1.687 3.422 3.767 3.422h2.98c-2.08 0-3.767-1.532-3.767-3.422"/><path fill="#FFF" fill-rule="nonzero" d="M127.9 162.134s1.224-3.229 5.144-3.053c3.92.176 4.61 3.053 4.61 3.053H127.9z"/><path fill="#2B7163" fill-rule="nonzero" d="M248.104 119.472c-.125 0-.225-.057-.225-.126V24.504c0-.07.1-.126.225-.126.124 0 .225.056.225.126v94.842c0 .07-.101.126-.225.126"/><path fill="#FFF" fill-rule="nonzero" d="M247.296 122.553h.859a.549.549 0 0 0 .547-.547v-4.763a.548.548 0 0 0-.547-.546h-.86a.549.549 0 0 0-.547.546v4.763c0 .3.247.547.548.547"/><path fill="#F8D188" fill-rule="nonzero" d="M242.002 142.91a6.139 6.139 0 0 0 6.142 6.136 6.138 6.138 0 0 0 6.142-6.136 6.138 6.138 0 0 0-6.142-6.135 6.139 6.139 0 0 0-6.142 6.135"/><path fill="#2C8270" fill-rule="nonzero" d="M246.102 135.66h3.806a2.423 2.423 0 0 0 2.424-2.422v-10.495a2.423 2.423 0 0 0-2.424-2.421h-3.806a2.423 2.423 0 0 0-2.425 2.421v10.495a2.423 2.423 0 0 0 2.425 2.422"/><path fill="#82C6A8" fill-rule="nonzero" d="M234.743 142.492c0-7.624 6.188-13.804 13.82-13.804 7.632 0 13.82 6.18 13.82 13.804 0 .14-.007.28-.011.418h-27.618c-.005-.139-.01-.278-.01-.418"/><path fill="#2B7163" fill-rule="nonzero" d="M227.899 85.6c.124 0 .225-.055.225-.125V.405c0-.069-.101-.125-.225-.125-.125 0-.225.056-.225.126v85.069c0 .07.1.126.225.126"/><path fill="#FFF" fill-rule="nonzero" d="M227.86 85.76h.587a.375.375 0 0 0 .374-.373v-3.25a.375.375 0 0 0-.374-.373h-.587a.375.375 0 0 0-.373.373v3.25c0 .205.168.373.373.373"/><path fill="#F8D188" fill-rule="nonzero" d="M224.248 99.653a4.19 4.19 0 0 0 4.191 4.187 4.19 4.19 0 0 0 4.192-4.187 4.19 4.19 0 0 0-4.192-4.187 4.19 4.19 0 0 0-4.191 4.187"/><path fill="#2C8270" fill-rule="nonzero" d="M227.045 94.705h2.598c.913 0 1.654-.74 1.654-1.653V85.89c0-.912-.74-1.652-1.654-1.652h-2.598c-.913 0-1.654.74-1.654 1.652v7.162c0 .913.74 1.653 1.654 1.653"/><path fill="#82C6A8" fill-rule="nonzero" d="M219.294 99.367c0-5.202 4.222-9.42 9.431-9.42 5.209 0 9.431 4.218 9.431 9.42 0 .096-.004.19-.007.286H219.3c-.002-.095-.007-.19-.007-.286"/><path fill="#FFF" fill-rule="nonzero" d="M82.932 162.177l-22.26-.134a1.756 1.756 0 0 1-1.747-1.765l.02-3.148c.005-.97.796-1.75 1.767-1.745l22.26.134-.04 6.658z"/><path fill="#F8BC7F" fill-rule="nonzero" d="M86.306 162.19h-.001l-24.058-.056a3.469 3.469 0 0 1-3.446-3.484 3.47 3.47 0 0 1 3.458-3.442h.03l23.972-.108a.134.134 0 0 1 .001.268l-23.973.108h-.028a3.2 3.2 0 0 0-3.192 3.175 3.2 3.2 0 0 0 3.18 3.215l24.057.057a.134.134 0 0 1 0 .268"/><path fill="#C38675" fill-rule="nonzero" d="M194.861 116.828l.006-.006-.001.003a.028.028 0 0 1-.005.003m1.716-7.028s7.135-5.024 4.381-5.368c-.624-.078-2.09-1.08-2.681-1.31.018-.206.037-.408.053-.62 0 0-2.447-7.705-8.618-2.862-1.471 1.154-2.464 2.907-4.273 3.702-.815.358-2.86-3.953-3.32-3.152-.192.33.083 1.286.48 5.458.275 2.887-.007 5.838.897 8.629.568 1.755 1.798 3.347 2.487 4.146.296.344.455.766.44 1.196-.078 2.14.801 4.072.801 4.072 2.084 1.558 5.23 1.033 5.23 1.033 4.98-.476 7.906-4.38 7.906-4.38s-4.614-5.308-3.783-10.544"/><path fill="#0F2337" fill-rule="nonzero" d="M205.082 104.194c-.878 1.466-2.224 3.34-3.606 4.065-1.214.637-2.154.17-3.247 1.1-.796.678-1.404 3.02-2.551 3.09-1.122.07-2.304-.134-3.275-.68-.903-.508-1.602-1.37-1.689-2.317-.078-.821 1.12-2.426-2.129-3.775-1.546-.639-.874-2.11-1.278-3.168-.47.42-.956.798-1.485 1.084-1.481.799-3.488.772-4.974-.08-1.252-.72-.862-2.894-1.645-3.974-.907-1.25-3.483-1.118-3.963-2.607-.438-1.356.112-2.892 1.291-3.79 1.627-1.237 4.037-1.204 5.947-2.063 2.325-1.044 3.674-3.283 5.827-4.584 2.116-1.278 4.98-1.516 7.374-.615 2.721 1.022 5.97 3.44 6.628 6.143-.074-.304-.05-.029 0 0 4.228 2.492 5.186 8.146 2.775 12.171"/><path fill="#0F2337" fill-rule="nonzero" d="M189.01 118.236c5.265-2.23-1.982-16.023-1.814-20.557 0 0-.885 2.096-2.133.821 1.186 2.718 4.707 14.472.539 11.586-3.713-2.57-2.622-1.236-2.816.875.05 1.106.168 2.2.441 3.264.881 3.434 2.054 5.59 5.783 4.01"/><path fill="#C38675" fill-rule="nonzero" d="M190.612 108.87c2.608-1.064 1.169-5.79-.06-6.556-2.154-1.344-2.233.729-2.233.729s1.562 5.169 1.723 5.914l.57-.087z"/><path fill="#2B7163" fill-rule="nonzero" d="M156.897 178.929c-4.62-2.745-9.455-5.103-14.627-6.463-.71 1.863-.884 3.759-.332 5.653 4.154 14.25 15.296 42.016 15.296 42.016l3.759-.585-4.682-40.466c.578-.154 0 0 .586-.155"/><path fill="#82C6A8" fill-rule="nonzero" d="M163.267 221.478c-.363-.9-.823-1.736-1.438-2.488-.09-.111-1.176-1.312-1.142-1.361-.455.662-.85 1.296-1.59 1.684-.805.424-1.5.254-2.27-.156-.04-.02-1.067.975-1.18 1.07-.382.325-.793.614-1.207.9-1.178.815-2.415 1.542-3.67 2.233-.638.35-1.298.668-1.925 1.034-.359.21-.983.57-.914 1.065l.001.01.023.119.002.012c.012.054.027.112.043.172 1.218-.014 8.066-.276 15.267-4.294"/><path fill="#FFF" fill-rule="nonzero" d="M148.426 226.826c.064.104.902.045 1.04.046.366.003.733-.009 1.1-.033a17.636 17.636 0 0 0 2.122-.27c3.638-.686 7.162-2.127 10.623-3.407a.322.322 0 0 0 .167-.14c.199-.327-.025-1.049-.115-1.298a7.197 7.197 0 0 0-.096-.246c-7.2 4.018-14.049 4.28-15.267 4.294.095.352.264.795.426 1.054"/><path fill="#2C8270" fill-rule="nonzero" d="M195.062 175.666c-12.287 9.97-29.592 8.505-44.406 7.82l-6.63 40.033-3.76-.582s-2.181-29.834-1.81-44.67c.371-14.837 39.66-17.349 39.66-17.349s15.88 4.624 17.007 13.525l-.061 1.223z"/><path fill="#F8D188" fill-rule="nonzero" d="M209.534 122.271c-3.095-1.305-6.403-2.09-9.77-2.364-6.928-.564-13.14.405-19.556 2.702-1.35 5.386-3.782 10.859-4.061 16.43a.903.903 0 0 1-.072.317c-.095 4.42.584 19.102 4.466 32.897 4.76 16.915 21.605 4.229 16.962 5.082-11.927 2.189 21.93-21.503 23.463-32.069a40.46 40.46 0 0 0 .391-4.716c.209-8.08-4.226-15.074-11.823-18.279"/><path fill="#C38675" fill-rule="nonzero" d="M171.763 145.098c-8.92 5.652-32.166 15.402-32.62 15.704-.988.655-2.081.954-2.971-.2-1.58-2.043-4.652-2.098-6.753.044-.593.604-.759.66-.744.013.06-2.74 3.567-4.289 5.832-4.048a9.44 9.44 0 0 1 3.495 1.094c.023.013.32-.153.732-.42l.021-.015c.76-.492 18.048-14.956 25.435-21.843.667 1.308 1.32 2.619 2.065 3.885 1.034 1.765 2.21 3.586 3.814 4.858.503.4 1.076.748 1.694.928"/><path fill="#F8D188" fill-rule="nonzero" d="M172.072 127.874c4.47-3.955 9.657-7.242 15.297-5.602 2.511.73 2.974 2.733 2.512 5.107a15.077 15.077 0 0 1-1.56 3.613c-2.916 4.548-9.289 9.489-16.44 14.033l-.248.033c-.568-.188-1.096-.517-1.563-.888-1.605-1.273-2.781-3.093-3.816-4.857-.743-1.266-1.397-2.579-2.064-3.886l.605-.567.01-.008.29-.274.01-.01.287-.272.009-.008.286-.272.003-.002c1.907-1.825 4.046-4.074 6.382-6.14"/><path fill="#F8BC7F" fill-rule="nonzero" d="M172.509 144.563c-.606.387-1.219.772-1.835 1.153-4.29-2.202-6.477-6.624-7.464-9.352a222.96 222.96 0 0 0 1.75-1.624c1.489 5.409 5.05 8.32 7.549 9.823"/><path fill="#EAEAEA" fill-rule="nonzero" d="M170.621 145.96a.126.126 0 0 1-.067-.232c8.762-5.569 15.2-10.965 17.661-14.803a.126.126 0 1 1 .212.136c-3.522 5.494-13.578 12.236-17.738 14.88a.127.127 0 0 1-.068.02"/><path fill="#BDE1D0" fill-rule="nonzero" d="M145.608 226.045c-.072-.967-.258-1.903-.615-2.807-.053-.132-.722-1.606-.675-1.642-.634.493-1.204.977-2.026 1.123-.897.16-1.507-.213-2.115-.837-.032-.032-1.314.606-1.45.662-.463.194-.942.344-1.424.492-1.37.42-2.77.737-4.176 1.014-.713.141-1.438.244-2.147.403-.406.09-1.11.245-1.195.737l-.001.01a2.38 2.38 0 0 0-.016.12v.013a2.933 2.933 0 0 0-.012.177c1.165.356 7.77 2.182 15.852.535"/><path fill="#FFF" fill-rule="nonzero" d="M129.841 226.643c.03.118.846.316.977.359.348.113.702.214 1.059.302.691.171 1.396.3 2.104.386 3.674.449 7.47.144 11.157-.027a.324.324 0 0 0 .201-.082c.289-.252.295-1.007.285-1.272a7.079 7.079 0 0 0-.016-.264c-8.083 1.647-14.687-.179-15.852-.535-.016.364.01.837.085 1.133"/><path fill="#BDE1D0" fill-rule="nonzero" d="M187.254 227.108a1.752 1.752 0 0 0 1.753-1.586l3.584-37.941-1.825-.008-1.662-.008-3.533 37.689a1.697 1.697 0 0 0 1.683 1.854m-26.147-.128a1.75 1.75 0 0 0 1.94-1.351l8.518-37.642-3.614.042-8.278 36.9a1.696 1.696 0 0 0 1.434 2.051m51.447.806c-.9.11-1.736-.483-1.927-1.37l-8.726-39.31 3.531-.688 8.575 39.329a1.696 1.696 0 0 1-1.453 2.039"/><path fill="#2B7163" fill-rule="nonzero" d="M187.186 205.92a.126.126 0 0 1-.08-.03l-16.847-13.83a.126.126 0 1 1 .16-.194l16.847 13.83a.126.126 0 0 1-.08.223"/><path fill="#2B7163" fill-rule="nonzero" d="M166.952 207.278a.126.126 0 0 1-.07-.23l21.482-14.504a.126.126 0 0 1 .176.034.126.126 0 0 1-.034.175l-21.483 14.503a.124.124 0 0 1-.07.022m40.263-1.267a.125.125 0 0 1-.078-.028l-15.416-12.416a.126.126 0 1 1 .158-.196l15.415 12.416a.126.126 0 0 1-.079.224"/><path fill="#2B7163" fill-rule="nonzero" d="M190.628 205.935a.126.126 0 0 1-.08-.223l14.175-11.513a.126.126 0 1 1 .16.195l-14.176 11.513a.126.126 0 0 1-.079.028"/><path fill="#FFF" fill-rule="nonzero" d="M223.926 140.871c-.322-1.703-1.484-3.332-4.702-3.487l-11.37-.052s-15.354-.525-21.25 29.61c-.735 3.742-2.96 7.433-5.592 10.126-5.053 5.171-11.546 5.8-18.404 6.134-1.919.093-3.778.164-5.14.193a2.187 2.187 0 0 0-2.142 2.28 2.189 2.189 0 0 0 2.22 2.16c6.158-.089 24.183-.331 39.742-.383 6.648-.022 17.5-1.046 20.161-8.546.91-2.565.763-5.927 1.073-8.638.328-2.862.672-5.723 1.098-8.574.85-5.689 2.013-11.351 3.926-16.788 0 0 .751-2.066.38-4.035"/><path fill="#B4DDCB" fill-rule="nonzero" d="M207.855 137.332s-15.355-.525-21.251 29.61c-.735 3.742-2.96 7.433-5.592 10.126-5.053 5.171-11.546 5.8-18.404 6.134-1.92.093-3.777.164-5.14.193a2.187 2.187 0 0 0-2.143 2.212v.068c.004.222.04.436.104.637 2.033 0 8.234.147 10.002.061 6.858-.333 13.35-.962 18.404-6.134 2.631-2.693 4.856-6.383 5.59-10.126 5.898-30.135 21.316-29.61 21.316-29.61l11.306.052a7.327 7.327 0 0 1 1.879.316c-.322-1.703-1.484-3.332-4.702-3.487l-11.37-.052"/><path fill="#2B8370" fill-rule="nonzero" d="M155.348 133.075a.07.07 0 0 1-.07-.068c-.002-.054-.181-5.358-1.987-6.93-.381-.331-.813-.473-1.285-.423-1.224.132-1.432.885-1.651 1.683-.27.976-.575 2.083-2.839 2.083-2.41 0-2.903-2.422-3.425-4.986-.582-2.858-1.184-5.813-4.419-5.944-3.145-.13-3.957 2.332-4.74 4.71-.66 2.003-1.283 3.896-3.299 3.896h-.05c-1.517-.024-2.24-1.441-2.876-2.691-.565-1.108-1.099-2.155-2.082-2.155h-.021c-1.232.019-2.256 1.033-3.043 3.016-.232.584-1.028 1.48-2 1.55-.56.04-1.386-.195-2.158-1.542-2.766-4.826-8.086-3.882-8.14-3.871a.07.07 0 1 1-.026-.137c.054-.011 5.47-.975 8.288 3.94.59 1.03 1.27 1.525 2.026 1.47.873-.062 1.653-.889 1.88-1.462.81-2.04 1.877-3.084 3.17-3.103h.025c1.068 0 1.62 1.083 2.206 2.23.649 1.274 1.32 2.592 2.753 2.614h.047c1.915 0 2.523-1.846 3.167-3.8.762-2.313 1.634-4.935 4.879-4.804 3.344.135 3.985 3.28 4.55 6.055.51 2.506.993 4.874 3.288 4.874 2.157 0 2.435-1.007 2.704-1.98.222-.808.452-1.643 1.771-1.785.51-.055.98.098 1.392.457 1.852 1.611 2.028 6.81 2.035 7.03a.07.07 0 0 1-.068.073h-.002z"/><path fill="#2C8270" fill-rule="nonzero" d="M140.396 118.42a.72.72 0 1 1-1.44 0 .72.72 0 0 1 1.44 0"/><path fill="#2C8270" fill-opacity=".36" fill-rule="nonzero" d="M159.509 133.005c-12.024 0-24.048.001-36.071-.003-3.536 0-10.84.004-14.375.003 4.989.548 4.011-5.586 7.354-5.547 5.532.065 4.813-9.288 7.727-9.349 2.21-.046 4.048 2.159 5.916 3.068 2.94 1.43 3.233-1.414 3.376-3.804.119-1.987-.13-4.702 1.416-6.238.96-.955 2.728-.42 3.49.7.764 1.119.807 2.561.823 3.915l.137 11.018c.013 1.048.068 2.204.793 2.962 1.52 1.588 4.353.806 5.704-.59 1.031-1.066 1.094-2.424 2.876-2.424 2.497 0 2.836 2.397 3.762 4.15.716 1.353 2.13 1.38 3.26.512 0 0 .466-.397.855-.438.827-.087 1.637 1.918 2.957 2.065"/><path fill="#FFF" fill-rule="nonzero" d="M57.707 155.114l23.739-.121a1.205 1.205 0 0 0 1.199-1.21l-.011-2.16a1.205 1.205 0 0 0-1.212-1.199l-23.738.122.023 4.568z"/><path fill="#2B7163" fill-rule="nonzero" d="M56.385 155.22a.134.134 0 0 1 0-.268l23.954-.061a2.137 2.137 0 0 0 1.519-.638c.404-.408.625-.95.623-1.524a2.155 2.155 0 0 0-2.144-2.14h-.02l-23.979.124a.134.134 0 0 1-.001-.268l23.978-.123a2.4 2.4 0 0 1 1.716.7 2.4 2.4 0 0 1 .718 1.706 2.4 2.4 0 0 1-.7 1.713 2.405 2.405 0 0 1-1.709.717l-23.954.061h-.001z"/><path fill="#BDE1D0" fill-opacity=".2" fill-rule="nonzero" d="M70.68 143.164c-1.303-.584-2.59-1.27-3.593-2.284-1.003-1.016-1.698-2.41-1.597-3.832.167-2.37 2.327-4.011 3.76-5.908 3.833-5.066 1.55-10.62-2.041-15.06-1.994-2.464-4.302-4.657-6.59-6.845-.892-.854-6.333-3.894-5.094-5.646.174-.247.478-.364.769-.447 1.097-.311 2.219-.237 3.341-.154 6.402.474 13.022 2.518 17.702 7.212 3.874 3.884 9.761 11.834 4.098 16.682-2.554 2.186-5.234 4.731-7.672 7.077-2.335 2.249-6.658 9.31-1.54 9.221"/><path fill="#F8D188" fill-rule="nonzero" d="M70.19 150.405a6.934 6.934 0 0 0 6.938-6.93H63.252a6.934 6.934 0 0 0 6.938 6.93"/></g></svg>