<svg id="Layer_1" data-name="Layer 1" xmlns="http://www.w3.org/2000/svg" viewBox="0 0 300 300"><defs><style>.cls-1{fill:#f0f3f8;}.cls-2{fill:#d0ddef;}.cls-3{fill:#1756c6;}.cls-4{fill:#efeeee;}.cls-5{fill:#236df1;}.cls-6{fill:#fff;}</style></defs><title>updated icons 1st march</title><path class="cls-1" d="M176.48,86a24.75,24.75,0,0,0,6.6,4.79c20.62,10.15,46.18-12,65.56,4.44C266,110,241,140.88,241,158.63c-.12,29.55,39,64.06,4.85,89.13-9.78,7.18-23.22,8.85-34.64,4.76-19.07-6.83-31.52-27.81-51.5-31.12-14.39-2.39-28.29,5.16-41.54,11.25-11.29,5.19-23.22,9.52-35.63,10.16S57.06,240,48.11,231.4c-19.67-18.94-4.28-46.31,4.68-66.43,8.86-19.91,15.4-41.4,14.4-63.17C66.73,91.83,64.7,82,64.62,72c-.37-46.75,69.62-66.78,93-25.4,4.28,7.57,6.31,16.18,9.53,24.26C169.37,76.37,172.33,81.85,176.48,86Z"/><path class="cls-2" d="M252.33,130l1.56.17c11.84,1.29,20.89,10.1,21.08,20.68q0,.25,0,.5c.06,10.34-8.57,19.11-20.06,20.81L249,173Z"/><path class="cls-3" d="M220.85,246.25a17.6,17.6,0,0,1-16.72-23.05L213,196.06l.3-.05,22.66-3.95-14.49,54.18h-.59Zm-7.1-49.31-8.66,26.57a16.59,16.59,0,0,0,15.59,21.74l13.89-51.94Z"/><path class="cls-4" d="M182.44,193.45l.25,1.31a8.47,8.47,0,0,0,9.55,6.82l36.44-5.3a9.62,9.62,0,0,0,7.17-4.83,9.25,9.25,0,0,0,1.07-4.93Z"/><path class="cls-3" d="M191,202.17a9,9,0,0,1-8.8-7.31l-.35-1.83L237.38,186l0,.54a9.76,9.76,0,0,1-1.12,5.19,10.13,10.13,0,0,1-7.54,5.09l-36.44,5.3A9.23,9.23,0,0,1,191,202.17Zm-8-8.29.15.79a8,8,0,0,0,9,6.42l36.44-5.3a9.13,9.13,0,0,0,6.8-4.57,8.71,8.71,0,0,0,1-4.13Z"/><path class="cls-5" d="M259,152.58q0-.8,0-1.6c.09-21.53-17.24-39.44-39.65-40.85L164,106.64l7.4,90.09,3.56.53L221.57,192C242.56,189.63,258.72,172.83,259,152.58Z"/><path class="cls-3" d="M115.23,225.78l75.29-30.13a98.27,98.27,0,0,0,8.33-42.92c-1-25.6-9-43.88-9-43.88L110,77.5Z"/><ellipse class="cls-2" cx="108.48" cy="152.91" rx="26.12" ry="75.4"/><ellipse class="cls-5" cx="108.15" cy="151.95" rx="17.4" ry="66.84"/><path class="cls-6" d="M125.44,164.11H107.19a11.61,11.61,0,0,1,0-23.22h18.16a.5.5,0,1,1,0,1H107.19a10.61,10.61,0,0,0,0,21.22h18.26a.5.5,0,0,1,0,1Z"/></svg>