<svg id="Layer_1" data-name="Layer 1" xmlns="http://www.w3.org/2000/svg" viewBox="0 0 300 300"><defs><style>.cls-1{fill:#f0f3f8;}.cls-2{fill:#236df1;}.cls-3{fill:#104a9e;}.cls-4{fill:#d0ddef;}.cls-5{fill:#fff;}.cls-6{fill:#c28575;}</style></defs><title>updated icons 1st march</title><path class="cls-1" d="M105.78,29.52A66.84,66.84,0,0,0,70,66.47c-9.34,23.4-15.37,61.55,8.9,78.24,6.81,4.69,15,6.92,22.64,10,24.59,9.79,24.44,29.1,24.9,52.39.35,17.74,5.33,36.06,17.4,49.08,10.16,11,24.7,17.35,39.54,19.16s30-.7,44.13-5.51c12.55-4.27,24.75-10.53,33.73-20.29s14.35-23.42,11.93-36.46c-8.87-47.87-79.24-50.61-86.5-100.92-2-14.2,2.69-28.87-.31-42.9-3.61-16.84-18-29.69-33.93-36.25-11.59-4.77-29.85-10-46.69-3.46"/><rect class="cls-2" x="115.88" y="90.35" width="82.66" height="129.23" rx="8.39" ry="8.39"/><path class="cls-3" d="M198.41,90.33h0a0,0,0,0,1,0,0V219.92a0,0,0,0,1,0,0h0a7,7,0,0,1-7-7V97.29a7,7,0,0,1,7-7Z" transform="translate(389.87 310.25) rotate(180)"/><rect class="cls-4" x="125.88" y="113.18" width="56.54" height="83.56"/><path class="cls-5" d="M153.18,215.17A7.12,7.12,0,1,1,160.3,208,7.13,7.13,0,0,1,153.18,215.17Zm0-13.24A6.12,6.12,0,1,0,159.3,208,6.13,6.13,0,0,0,153.18,201.93Z"/><path class="cls-5" d="M162.69,103.2H145A3.12,3.12,0,1,1,145,97h17.65a3.12,3.12,0,1,1,0,6.24ZM145,98a2.12,2.12,0,1,0,0,4.24h17.65a2.12,2.12,0,1,0,0-4.24Z"/><path class="cls-6" d="M226.86,236.12c-4.25-15-11.67-39-13.49-45.92a17.93,17.93,0,0,0-2.25-5.2c-6.44-9.88-13.93-16.33-29.6-15.17l-27.81,1.28a2.23,2.23,0,0,0-2.11,1.91c-.59,4.27.19,14.65,21.09,16.42l8.52.34c1.82.07-2.57,12,3.93,22.15,1.95,3,3.6,5.56,5,7.65l-51.45-.08L174.45,236h0c1.91,1.23,11.37,7.95,17.88,23l6.12,16.56a99.31,99.31,0,0,0,38.14-9.42C232.58,254.22,228.5,241.92,226.86,236.12Z"/></svg>